<?xml version="1.0" standalone="no"?>
<!DOCTYPE svg PUBLIC "-//W3C//DTD SVG 20010904//EN"
 "http://www.w3.org/TR/2001/REC-SVG-20010904/DTD/svg10.dtd">
<svg version="1.0" xmlns="http://www.w3.org/2000/svg"
 width="400.000000pt" height="300.000000pt" viewBox="0 0 400.000000 300.000000"
 preserveAspectRatio="xMidYMid meet">

<g transform="translate(0.000000,300.000000) scale(0.100000,-0.100000)"
fill="#000000" stroke="none">
<path d="M1920 2253 c-95 -11 -240 -57 -225 -71 4 -4 61 -7 128 -7 114 -1 140
-5 187 -34 8 -5 48 -15 88 -21 39 -7 72 -16 72 -21 0 -5 -136 -9 -324 -9
l-324 0 -74 -78 c-59 -63 -138 -180 -138 -205 0 -2 25 -7 55 -10 31 -3 75 -15
98 -26 64 -30 156 -38 336 -29 50 3 63 0 83 -19 22 -21 34 -23 134 -23 76 1
117 5 134 15 33 19 92 19 137 0 19 -8 50 -15 67 -15 18 0 36 -4 42 -9 5 -5 56
-12 114 -15 58 -4 135 -9 172 -12 l67 -6 -15 49 c-8 26 -28 76 -44 111 l-29
62 -500 0 c-288 0 -501 4 -501 9 0 5 8 12 18 16 25 11 311 35 522 44 102 4
198 13 213 19 16 7 49 12 75 13 26 1 58 4 71 8 23 6 21 9 -38 63 -160 148
-389 225 -601 201z"/>
<path d="M1246 1569 c-9 -89 -8 -109 7 -109 7 0 30 -9 50 -19 32 -16 39 -17
44 -5 12 32 234 162 307 180 46 11 27 12 -175 13 l-226 1 -7 -61z"/>
<path d="M2145 1616 c28 -7 79 -31 115 -54 36 -22 94 -50 130 -60 162 -50 181
-54 210 -48 17 3 47 19 68 35 20 16 49 33 65 36 28 7 34 31 21 83 l-6 22 -327
-1 c-282 -1 -319 -2 -276 -13z"/>
<path d="M1800 1599 c-106 -9 -157 -22 -235 -61 -109 -56 -185 -114 -185 -145
0 -15 1 -15 18 0 10 10 29 17 42 17 22 0 22 1 6 13 -15 11 -8 18 61 64 92 60
154 83 226 83 50 0 53 -2 109 -60 l57 -60 166 11 c92 6 196 9 231 7 l65 -4
-58 28 c-32 15 -79 41 -104 58 -70 45 -224 64 -399 49z m308 -29 c37 -10 126
-59 120 -66 -2 -2 -28 6 -58 17 -29 11 -101 28 -159 39 l-106 18 85 1 c47 1
100 -3 118 -9z"/>
<path d="M1634 1536 c-23 -7 -63 -28 -90 -47 l-49 -34 80 -6 c44 -4 126 -9
183 -12 101 -6 102 -6 91 14 -6 12 -27 38 -46 60 -32 35 -40 39 -82 38 -25 0
-64 -6 -87 -13z"/>
<path d="M2564 1382 c-8 -12 -7 -26 1 -46 10 -23 13 -25 18 -11 9 23 9 63 -1
69 -4 2 -13 -3 -18 -12z"/>
<path d="M2641 1338 c4 -24 8 -67 9 -95 0 -49 2 -53 25 -53 22 0 27 9 50 81
35 111 36 109 -34 109 l-58 0 8 -42z"/>
<path d="M1266 1316 c24 -91 42 -126 65 -126 18 0 20 4 15 28 -3 15 -9 55 -12
90 l-7 62 -37 0 -38 0 14 -54z"/>
<path d="M2025 1346 c23 -34 69 -53 153 -60 80 -8 92 2 48 43 -23 22 -40 26
-154 35 l-62 6 15 -24z"/>
<path d="M2390 1348 c-63 -6 -116 -11 -118 -13 -2 -1 7 -19 19 -40 l23 -38 98
6 c111 6 130 15 126 61 -4 37 0 36 -148 24z"/>
<path d="M1886 1331 c-10 -11 -25 -45 -35 -77 -20 -67 -46 -88 -39 -31 4 40
-5 39 -26 -1 l-14 -28 -109 8 c-146 10 -150 12 -159 50 -21 99 -94 104 -94 8
0 -25 -4 -31 -15 -26 -20 7 -19 2 11 -50 28 -48 26 -51 -34 -56 l-33 -3 33
-50 c151 -228 451 -364 722 -327 82 11 219 51 238 70 6 6 -20 17 -69 28 l-78
18 55 12 c44 10 66 10 117 0 59 -13 65 -12 91 7 56 42 145 134 183 189 l39 57
-77 3 -78 3 38 19 c43 23 45 30 14 50 -19 13 -44 14 -157 6 -74 -5 -138 -9
-141 -10 -3 0 -23 -13 -44 -30 -34 -27 -45 -30 -110 -30 -46 0 -76 5 -83 13
-5 6 -16 41 -23 76 -20 102 -79 151 -123 102z m84 -43 c28 -45 27 -126 -1
-162 -24 -31 -40 -33 -63 -7 -53 59 -31 201 31 201 7 0 22 -15 33 -32z m-489
-4 c19 -23 17 -120 -2 -140 -15 -14 -18 -14 -33 1 -32 32 -21 155 14 155 4 0
14 -7 21 -16z m357 -129 c6 -3 12 -9 12 -15 0 -6 -54 -10 -150 -10 -82 0 -150
4 -150 8 0 28 28 33 150 27 69 -4 131 -8 138 -10z m566 -1 c37 -14 11 -24 -64
-24 -72 0 -101 10 -67 23 18 8 113 8 131 1z m-881 -91 c53 -10 97 -21 97 -25
0 -5 -9 -8 -19 -8 -24 0 -201 40 -201 46 0 7 23 5 123 -13z m442 -95 c110 -22
110 -22 71 -33 -33 -9 -57 -7 -153 14 -62 14 -113 29 -113 33 0 14 84 8 195
-14z"/>
<path d="M2581 1252 c-7 -13 -6 -23 1 -30 19 -19 28 -14 28 18 0 34 -14 39
-29 12z"/>
<path d="M2066 1204 c-10 -26 3 -34 52 -34 35 1 55 7 77 25 l30 25 -76 0 c-61
0 -78 -3 -83 -16z"/>
</g>
</svg>
